<?xml version="1.0" encoding="UTF-8"?>
<svg id="svg" width="399.37" height="115.83" display="block" version="1.1" xmlns="http://www.w3.org/2000/svg" xmlns:cc="http://creativecommons.org/ns#" xmlns:dc="http://purl.org/dc/elements/1.1/" xmlns:rdf="http://www.w3.org/1999/02/22-rdf-syntax-ns#">
 <metadata>
  <rdf:RDF>
   <cc:Work rdf:about="">
    <dc:format>image/svg+xml</dc:format>
    <dc:type rdf:resource="http://purl.org/dc/dcmitype/StillImage"/>
    <dc:title/>
   </cc:Work>
  </rdf:RDF>
 </metadata>
 <g fill="#fff">
  <g stroke-width="0">
   <path d="m349.25 36.27c0.0176-1.5587 0.25623-3.1317 0.875-4.5625 0.27425-0.63413 0.62064-1.2351 1-1.8125 0.31849-0.48476 0.66197-0.95546 1.0625-1.375 0.17781-0.18625 0.37701-0.36817 0.625-0.4375 0.1825-0.05102 0.38522-0.03446 0.55165 0.05615s0.29245 0.25689 0.32335 0.44385c0.0159 0.09643 7e-3 0.19593-0.0168 0.29066-0.0241 0.09474-0.0632 0.18507-0.1082 0.27184-0.20572 0.39671-0.52959 0.71658-0.8125 1.0625-0.43319 0.52968-0.77553 1.1288-1.0625 1.75-0.26857 0.58136-0.49082 1.1863-0.625 1.8125-0.1973 0.92077-0.20136 1.8709-0.1875 2.8125 0.0102 0.69116 0.031 1.3917 0.2279 2.0543 0.21978 0.73959 0.64776 1.3961 1.0221 2.0707 0.24953 0.44971 0.47834 0.91368 0.78347 1.3277 0.15081 0.20462 0.31923 0.39555 0.47725 0.59466 0.11034 0.13904 0.21619 0.28299 0.29577 0.44165 0.0796 0.15866 0.13235 0.33352 0.13101 0.51102-1e-3 0.13736-0.0356 0.27613-0.11076 0.39112-0.0751 0.115-0.19257 0.20445-0.32674 0.23388-0.12322 0.02703-0.25354 3e-3 -0.36933-0.04707-0.1158-0.05007-0.21901-0.12495-0.31817-0.20293-0.29931-0.23539-0.57112-0.50437-0.82322-0.78975-0.72502-0.82071-1.2866-1.7756-1.7393-2.7728-0.1726-0.38026-0.33009-0.76774-0.4596-1.1648-0.16816-0.51549-0.28889-1.0468-0.3529-1.5852-0.0542-0.45592-0.0677-0.9159-0.0625-1.375z"/>
   <path d="m352.66 36.203c-0.0404-1.0771 0.16785-2.1628 0.60384-3.1486 0.19282-0.43598 0.42913-0.85188 0.69011-1.2508 0.21914-0.33498 0.45672-0.65946 0.73324-0.9489 0.12275-0.12849 0.26019-0.25405 0.43132-0.30192 0.12594-0.03523 0.26585-0.02381 0.38071 0.03873 0.11485 0.06254 0.20182 0.17729 0.22313 0.30632 0.011 0.06655 5e-3 0.13522-0.0116 0.20059-0.0166 0.06538-0.0436 0.12772-0.0747 0.1876-0.14198 0.27377-0.36542 0.49456-0.56071 0.73324-0.29904 0.36548-0.53569 0.77876-0.73324 1.2077-0.18486 0.40137-0.3369 0.81913-0.43132 1.2508-0.13891 0.63512-0.15143 1.2912-0.1294 1.9409 0.0147 0.43229 0.0449 0.86741 0.15728 1.2851 0.14877 0.55286 0.43597 1.0564 0.70536 1.5616 0.16703 0.31324 0.32919 0.63114 0.54068 0.91624 0.10451 0.14088 0.22044 0.27287 0.32935 0.41038 0.0761 0.09602 0.14908 0.19536 0.20401 0.30483 0.0549 0.10948 0.0914 0.23012 0.0905 0.35261-6.9e-4 0.0948-0.0246 0.19057-0.0764 0.26993-0.0519 0.07936-0.1329 0.14109-0.2255 0.16139-0.085 0.01865-0.17497 0.0021-0.25488-0.03249-0.0799-0.03455-0.15114-0.08622-0.21957-0.14004-0.20656-0.16244-0.39415-0.34805-0.56811-0.54501-0.50029-0.56642-0.88753-1.2255-1.2003-1.9135-0.11927-0.26235-0.22823-0.52968-0.31717-0.8038-0.11547-0.35588-0.19696-0.72275-0.24354-1.094-0.0395-0.31449-0.0539-0.63212-0.0431-0.9489z" display="block"/>
   <path d="m356.07 36.017c0.0238-0.51275 0.15526-1.0185 0.36731-1.486 0.12984-0.28624 0.29045-0.55972 0.49081-0.8019 0.10215-0.12347 0.2142-0.23834 0.32607-0.35308 0.035-0.03592 0.0702-0.07195 0.10966-0.10287 0.0395-0.03092 0.0837-0.05675 0.13219-0.06974 0.0819-0.02196 0.17271-0.0046 0.24272 0.04323 0.07 0.04781 0.11874 0.12463 0.13564 0.2077 0.0193 0.09494-1e-3 0.19346-0.0306 0.28584-0.0242 0.07648-0.0541 0.15109-0.0893 0.22318-0.0704 0.14448-0.16116 0.27798-0.24147 0.41721-0.15796 0.27386-0.27573 0.5705-0.35313 0.87703-0.0947 0.37521-0.12902 0.764-0.12522 1.151 2e-3 0.24257 0.0199 0.48687 0.0841 0.7208 0.0732 0.2668 0.20503 0.51313 0.33324 0.75829 0.074 0.14151 0.14715 0.28347 0.22303 0.42398 0.0608 0.11265 0.12349 0.22449 0.17624 0.34114 0.0242 0.05362 0.0465 0.10845 0.0602 0.16566 0.0138 0.05721 0.019 0.11709 9e-3 0.17508-0.0165 0.09571-0.0766 0.18378-0.16155 0.2308-0.0776 0.04296-0.1717 0.05072-0.25852 0.03243-0.0868-0.01829-0.16695-0.06109-0.23844-0.11363-0.15623-0.11482-0.27291-0.27454-0.38134-0.43527-0.13995-0.20746-0.27088-0.42169-0.37711-0.64827-0.0675-0.14393-0.12478-0.29238-0.18076-0.44116-0.08-0.2127-0.15788-0.42776-0.19661-0.65169-0.0347-0.20039-0.0468-0.40406-0.0562-0.6072-5e-3 -0.11411-5e-3 -0.22846 4e-5 -0.34257z" display="block"/>
   <path d="m373.15 36.215c-0.0176-1.5587-0.25623-3.1317-0.875-4.5625-0.27425-0.63413-0.62064-1.2351-1-1.8125-0.31849-0.48476-0.66197-0.95546-1.0625-1.375-0.17781-0.18625-0.37701-0.36817-0.625-0.4375-0.1825-0.05102-0.38522-0.03446-0.55165 0.05615s-0.29245 0.25689-0.32335 0.44385c-0.0159 0.09643-7e-3 0.19593 0.0168 0.29066 0.0241 0.09474 0.0632 0.18507 0.1082 0.27184 0.20572 0.39671 0.52959 0.71658 0.8125 1.0625 0.43319 0.52968 0.77553 1.1288 1.0625 1.75 0.26857 0.58136 0.49082 1.1863 0.625 1.8125 0.1973 0.92077 0.20136 1.8709 0.1875 2.8125-0.0102 0.69116-0.031 1.3917-0.2279 2.0543-0.21978 0.73959-0.64776 1.3961-1.0221 2.0707-0.24953 0.44971-0.47834 0.91368-0.78347 1.3277-0.15081 0.20462-0.31923 0.39555-0.47725 0.59466-0.11034 0.13904-0.21619 0.28299-0.29577 0.44165-0.0796 0.15866-0.13235 0.33352-0.13101 0.51102 1e-3 0.13736 0.0356 0.27613 0.11076 0.39112 0.0751 0.115 0.19257 0.20445 0.32674 0.23388 0.12322 0.02703 0.25354 3e-3 0.36933-0.04707 0.1158-0.05007 0.21901-0.12495 0.31817-0.20293 0.29931-0.23539 0.57112-0.50437 0.82322-0.78975 0.72502-0.82071 1.2866-1.7756 1.7393-2.7728 0.1726-0.38026 0.33009-0.76774 0.4596-1.1648 0.16816-0.51549 0.28889-1.0468 0.3529-1.5852 0.0542-0.45592 0.0677-0.9159 0.0625-1.375z" display="block"/>
   <path d="m369.75 36.149c0.0404-1.0771-0.16785-2.1628-0.60384-3.1486-0.19282-0.43598-0.42913-0.85188-0.69011-1.2508-0.21914-0.33498-0.45672-0.65946-0.73324-0.9489-0.12275-0.12849-0.26019-0.25405-0.43132-0.30192-0.12594-0.03523-0.26585-0.02381-0.38071 0.03873-0.11485 0.06254-0.20182 0.17729-0.22313 0.30632-0.011 0.06655-5e-3 0.13522 0.0116 0.20059 0.0166 0.06538 0.0436 0.12772 0.0747 0.1876 0.14198 0.27377 0.36542 0.49456 0.56071 0.73324 0.29904 0.36548 0.53569 0.77876 0.73324 1.2077 0.18486 0.40137 0.3369 0.81913 0.43132 1.2508 0.13891 0.63512 0.15143 1.2912 0.1294 1.9409-0.0147 0.43229-0.0449 0.86741-0.15728 1.2851-0.14877 0.55286-0.43597 1.0564-0.70536 1.5616-0.16703 0.31324-0.32919 0.63114-0.54068 0.91624-0.10451 0.14088-0.22044 0.27287-0.32935 0.41038-0.0761 0.09602-0.14908 0.19536-0.20401 0.30483-0.0549 0.10948-0.0914 0.23012-0.0905 0.35261 6.9e-4 0.0948 0.0246 0.19057 0.0764 0.26993 0.0519 0.07936 0.1329 0.14109 0.2255 0.16139 0.085 0.01865 0.17497 0.0021 0.25488-0.03249 0.0799-0.03455 0.15114-0.08622 0.21957-0.14004 0.20656-0.16244 0.39415-0.34805 0.56811-0.54501 0.50029-0.56642 0.88753-1.2255 1.2003-1.9135 0.11927-0.26235 0.22823-0.52968 0.31717-0.8038 0.11547-0.35588 0.19696-0.72275 0.24354-1.094 0.0395-0.31449 0.0539-0.63212 0.0431-0.9489z" display="block"/>
   <path d="m366.33 35.962c-0.0238-0.51275-0.15526-1.0185-0.36731-1.486-0.12984-0.28624-0.29045-0.55972-0.49081-0.8019-0.10215-0.12347-0.2142-0.23834-0.32607-0.35308-0.035-0.03592-0.0702-0.07195-0.10966-0.10287-0.0395-0.03092-0.0837-0.05675-0.13219-0.06974-0.0819-0.02195-0.17271-0.0046-0.24272 0.04323-0.07 0.04781-0.11874 0.12463-0.13564 0.2077-0.0193 0.09494 1e-3 0.19346 0.0306 0.28584 0.0242 0.07648 0.0541 0.15109 0.0893 0.22318 0.0704 0.14448 0.16116 0.27798 0.24147 0.41721 0.15796 0.27386 0.27573 0.5705 0.35313 0.87703 0.0947 0.37521 0.12902 0.764 0.12522 1.151-2e-3 0.24257-0.0199 0.48687-0.0841 0.7208-0.0732 0.2668-0.20503 0.51313-0.33324 0.75829-0.074 0.14151-0.14715 0.28347-0.22303 0.42398-0.0608 0.11265-0.12349 0.22449-0.17624 0.34114-0.0242 0.05362-0.0465 0.10845-0.0602 0.16566-0.0138 0.05721-0.019 0.11709-9e-3 0.17508 0.0165 0.09571 0.0766 0.18378 0.16155 0.2308 0.0776 0.04296 0.1717 0.05072 0.25852 0.03243 0.0868-0.01829 0.16695-0.06109 0.23844-0.11363 0.15623-0.11482 0.27291-0.27454 0.38134-0.43527 0.13995-0.20746 0.27088-0.42169 0.37711-0.64827 0.0675-0.14393 0.12478-0.29238 0.18076-0.44116 0.08-0.2127 0.15788-0.42776 0.19661-0.65169 0.0347-0.20039 0.0468-0.40406 0.0562-0.6072 5e-3 -0.11411 5e-3 -0.22846-4e-5 -0.34257z" display="block"/>
  </g>
  <g transform="translate(4.9497 -237.94)">
   <g stroke-width="0">
    <rect x="270.47" y="291.2" width="5.5022" height="1.5247" ry="1.5247" display="block"/>
    <rect x="270.47" y="302.01" width="5.5022" height="1.5247" ry="1.5247" display="block"/>
    <rect x="270.47" y="294.8" width="5.5022" height="1.5247" ry="1.5247" display="block"/>
    <rect x="270.47" y="298.43" width="5.5022" height="1.5247" ry="1.5247" display="block"/>
    <path d="m235.33 290.62 3.0625-0.375 0.125 14.375-3.1875-0.5z" display="block"/>
    <path d="m240.49 290.07 2.6961-0.3337 0.0539 15.5-2.75-0.46223z" display="block"/>
    <path d="m245.11 289.31 2.7574-0.44674 0.0551 17.125-2.8125-0.52119z" display="block"/>
    <path d="m235.4 293.01 14.451-1.2374v11.137l-14.451-0.92808z" display="block"/>
    <rect x="249.79" y="288.3" width="6.177" height="18.18" ry="0" display="block"/>
    <rect x="255.59" y="300.06" width="10.052" height="7.3046" ry="0" display="block"/>
    <rect x="255.59" y="287.46" width="10.052" height="7.3046" ry="0" display="block"/>
    <rect x="258.21" y="303.81" width="10.052" height="3.8671" ry="0" display="block"/>
    <rect x="258.21" y="287.03" width="10.052" height="3.8671" ry="0" display="block"/>
    <rect x="267.43" y="305.5" width="10.177" height="2.1796" ry="0" display="block"/>
    <rect x="267.43" y="287.03" width="10.177" height="2.1796" ry="0" display="block"/>
    <rect x="257.83" y="285.57" width="7.8599" height="4.0083" ry="2.0042" display="block"/>
    <rect x="257.83" y="285.57" width="5.3912" height="2.6958" ry="0" display="block"/>
   </g>
   <path d="m249.8 288.46c2.7444-0.0177 5.7609-0.81352 8.3074-2.447" display="block" stroke="#fff" stroke-width="1.0291px"/>
   <g stroke-width="0">
    <rect x="253.43" y="287.75" width="6.767" height="4.2123" ry="0" display="block"/>
    <rect x="256.41" y="286.6" width="6.767" height="4.2123" ry="0" display="block"/>
    <rect transform="scale(1,-1)" x="257.8" y="-308.84" width="7.8599" height="4.0083" ry="2.0042" display="block"/>
    <rect transform="scale(1,-1)" x="257.8" y="-308.84" width="5.3912" height="2.6958" ry="0" display="block"/>
   </g>
   <path d="m249.76 305.95c2.7444 0.0177 5.7609 0.81352 8.3074 2.447" display="block" stroke="#fff" stroke-width="1.0291px"/>
   <g stroke-width="0">
    <rect transform="scale(1,-1)" x="253.39" y="-306.66" width="6.767" height="4.2123" ry="0" display="block"/>
    <rect transform="scale(1,-1)" x="256.38" y="-307.81" width="6.767" height="4.2123" ry="0" display="block"/>
    <rect x="217.72" y="294.29" width="37.126" height="6.0379" ry="3.019" display="block"/>
   </g>
  </g>
  <g stroke-width="0">
   <circle cx="182.43" cy="59.297" r="2.8938"/>
   <circle cx="192.86" cy="59.297" r="2.8938" display="block"/>
   <circle cx="203.3" cy="59.297" r="2.8938" display="block"/>
   <circle cx="213.73" cy="59.297" r="2.8938" display="block"/>
   <circle cx="224.17" cy="59.297" r="2.8938" display="block"/>
   <circle cx="172" cy="59.297" r="2.8938" display="block"/>
  </g>
  <g transform="matrix(-1 0 0 1 391.78 -238.07)" display="block">
   <g stroke-width="0">
    <rect x="270.47" y="291.2" width="5.5022" height="1.5247" ry="1.5247" display="block"/>
    <rect x="270.47" y="302.01" width="5.5022" height="1.5247" ry="1.5247" display="block"/>
    <rect x="270.47" y="294.8" width="5.5022" height="1.5247" ry="1.5247" display="block"/>
    <rect x="270.47" y="298.43" width="5.5022" height="1.5247" ry="1.5247" display="block"/>
    <path d="m235.33 290.62 3.0625-0.375 0.125 14.375-3.1875-0.5z" display="block"/>
    <path d="m240.49 290.07 2.6961-0.3337 0.0539 15.5-2.75-0.46223z" display="block"/>
    <path d="m245.11 289.31 2.7574-0.44674 0.0551 17.125-2.8125-0.52119z" display="block"/>
    <path d="m235.4 293.01 14.451-1.2374v11.137l-14.451-0.92808z" display="block"/>
    <rect x="249.79" y="288.3" width="6.177" height="18.18" ry="0" display="block"/>
    <rect x="255.59" y="300.06" width="10.052" height="7.3046" ry="0" display="block"/>
    <rect x="255.59" y="287.46" width="10.052" height="7.3046" ry="0" display="block"/>
    <rect x="258.21" y="303.81" width="10.052" height="3.8671" ry="0" display="block"/>
    <rect x="258.21" y="287.03" width="10.052" height="3.8671" ry="0" display="block"/>
    <rect x="267.43" y="305.5" width="10.177" height="2.1796" ry="0" display="block"/>
    <rect x="267.43" y="287.03" width="10.177" height="2.1796" ry="0" display="block"/>
    <rect x="257.83" y="285.57" width="7.8599" height="4.0083" ry="2.0042" display="block"/>
    <rect x="257.83" y="285.57" width="5.3912" height="2.6958" ry="0" display="block"/>
   </g>
   <path d="m249.8 288.46c2.7444-0.0177 5.7609-0.81352 8.3074-2.447" display="block" stroke="#fff" stroke-width="1.0291px"/>
   <g stroke-width="0">
    <rect x="253.43" y="287.75" width="6.767" height="4.2123" ry="0" display="block"/>
    <rect x="256.41" y="286.6" width="6.767" height="4.2123" ry="0" display="block"/>
    <rect transform="scale(1,-1)" x="257.8" y="-308.84" width="7.8599" height="4.0083" ry="2.0042" display="block"/>
    <rect transform="scale(1,-1)" x="257.8" y="-308.84" width="5.3912" height="2.6958" ry="0" display="block"/>
   </g>
   <path d="m249.76 305.95c2.7444 0.0177 5.7609 0.81352 8.3074 2.447" display="block" stroke="#fff" stroke-width="1.0291px"/>
   <g stroke-width="0">
    <rect transform="scale(1,-1)" x="253.39" y="-306.66" width="6.767" height="4.2123" ry="0" display="block"/>
    <rect transform="scale(1,-1)" x="256.38" y="-307.81" width="6.767" height="4.2123" ry="0" display="block"/>
    <rect x="217.72" y="294.29" width="37.126" height="6.0379" ry="3.019" display="block"/>
   </g>
  </g>
 </g>
 <g transform="translate(-1.6867 -118.38)">
  <path d="m114.07 191.88c-3.0781 10.841-9.4719 20.717-18.104 27.963-8.6318 7.2458-19.466 11.832-30.677 12.985-11.211 1.1531-22.752-1.1314-32.678-6.4684-9.926-5.337-18.196-13.705-23.417-23.692-6.7586-12.93-8.2586-28.515-4.0911-42.497 4.1675-13.982 13.954-26.202 26.688-33.325 13.46-7.5286 30.053-9.2337 44.761-4.5948s27.322 15.557 34.017 29.451c1.7433 3.618 3.1004 7.422 4.0408 11.326" display="inline" fill="none" stroke="#fff" stroke-width="2.5"/>
  <path d="m288.67 191.69c3.0781 10.841 9.4719 20.717 18.104 27.963 8.6318 7.2458 19.466 11.832 30.677 12.985 11.211 1.1531 22.752-1.1314 32.678-6.4684s18.196-13.705 23.417-23.692c6.7586-12.93 8.2586-28.515 4.0911-42.497-4.1675-13.982-13.954-26.202-26.688-33.325-13.46-7.5286-30.053-9.2337-44.761-4.5948-14.709 4.6389-27.322 15.557-34.017 29.451-1.7433 3.618-3.1004 7.422-4.0408 11.326" display="inline" fill="none" stroke="#fff" stroke-width="2.5"/>
  <g fill="#fff" stroke-width="0">
   <rect transform="translate(1.6867 118.38)" x="359.38" y="46.957" width="3.6875" height="21.688" ry="1.4375" display="block"/>
   <rect transform="translate(1.6867 118.38)" x="359.81" y="35.426" width="2.6875" height="21.688" ry="1.4375" display="block"/>
   <rect transform="translate(1.6867 118.38)" x="321.28" y="81.4" width="6.8553" height="4.7561" rx="2.2989" ry="1.3053" display="block"/>
  </g>
  <rect x="313.06" y="187.24" width="61.875" height="12.625" rx="1.3227" ry=".125" fill="none" stroke="#fff" stroke-width="6.062"/>
  <g fill="#fff" stroke-width="0">
   <circle cx="325.42" cy="193.17" r="1.3281"/>
   <circle cx="330.31" cy="193.12" r="1.3281" display="block"/>
   <circle cx="320.62" cy="193.12" r="1.3281" display="block"/>
   <rect x="357.56" y="191.88" width="10.381" height="2.9177" rx="0" ry="0"/>
   <rect x="357.84" y="199.78" width="6.8553" height="4.7561" rx="2.2989" ry="1.3053" display="block"/>
  </g>
  <g transform="translate(0,-240)" fill="#fff" stroke-width="0">
   <path d="m44.179 390.4v50.514h18.076v-50.514zm14.775 1.6348h0.35352c0.55446 0 1 0.44554 1 1v45.598c0 0.55446-0.44554 1-1 1h-0.35352c-0.55446 0-1-0.44554-1-1v-45.598c0-0.55446 0.44554-1 1-1zm-11.705 2.8711h8.4375c0.51938 0 0.9375 0.41813 0.9375 0.9375v9.1875c0 0.51938-0.41812 0.9375-0.9375 0.9375h-8.4375c-0.51938 0-0.9375-0.41812-0.9375-0.9375v-9.1875c0-0.51937 0.41812-0.9375 0.9375-0.9375zm0 30.494h8.4375c0.51938 0 0.9375 0.41812 0.9375 0.9375v9.1875c0 0.51937-0.41812 0.9375-0.9375 0.9375h-8.4375c-0.51938 0-0.9375-0.41813-0.9375-0.9375v-9.1875c0-0.51938 0.41812-0.9375 0.9375-0.9375z"/>
   <g transform="translate(28.375)">
    <path transform="translate(1.6867 118.38)" d="m14.764 261.43c-2.2144 0-3.9961 1.7817-3.9961 3.9961v63.891c0 2.2144 1.7817 3.9961 3.9961 3.9961h0.23242c-0.08696-0.28179-0.14648-0.57564-0.14648-0.88672 0-0.19273 0.02229-0.38003 0.05664-0.5625h-0.41406c-1.2038 0-2.1738-0.97-2.1738-2.1738v-64.531c0-1.2038 0.97-2.1738 2.1738-2.1738h0.75781v-1.5547zm16.518 0v1.5547h0.43555c1.2038 0 2.1738 0.97 2.1738 2.1738v64.531c0 1.1577-0.89966 2.0897-2.0391 2.1602 0.03598 0.18656 0.05664 0.3788 0.05664 0.57617 0 0.30684-0.05984 0.59658-0.14453 0.875 2.1575-0.0641 3.8789-1.8108 3.8789-3.9844v-63.891c0-2.2144-1.7836-3.9961-3.998-3.9961z"/>
    <path transform="translate(1.6867 118.38)" d="m13.938 331.77c-0.3221 0.51115-0.50977 1.1146-0.50977 1.7676 0 1.8608 1.4986 3.3574 3.3594 3.3574h12.729c1.8608 0 3.3574-1.4967 3.3574-3.3574 0-0.64548-0.18536-1.242-0.5-1.75-0.10188 0.0437-0.21377 0.0703-0.33203 0.0703h-0.82422v1.8047c0 0.83932-0.67435 1.5137-1.5137 1.5137h-13.01c-0.83932 0-1.5156-0.67436-1.5156-1.5137v-1.7617h-0.81445c-0.15912 0-0.29924-0.0546-0.42578-0.13086z"/>
    <path d="m15.713 381.46c-0.3221-0.51115-0.50977-1.1146-0.50977-1.7676 0-1.8608 1.4986-3.3574 3.3594-3.3574h12.729c1.8608 0 3.3574 1.4967 3.3574 3.3574 0 0.64548-0.18536 1.242-0.5 1.75-0.10188-0.0437-0.21377-0.0703-0.33203-0.0703h-0.82422v-1.8047c0-0.83932-0.67435-1.5137-1.5137-1.5137h-13.01c-0.83932 0-1.5156 0.67436-1.5156 1.5137v1.7617h-0.81445c-0.15912 0-0.29924 0.0546-0.42578 0.13086z" display="block"/>
   </g>
   <circle cx="48.054" cy="451.17" r="1.0484"/>
   <circle cx="51.49" cy="451.17" r="1.0484" display="block"/>
   <circle cx="54.883" cy="451.17" r="1.0484" display="block"/>
   <circle cx="58.36" cy="451.17" r="1.0484" display="block"/>
   <circle cx="48.054" cy="380.47" r="1.0484" display="block"/>
   <circle cx="51.49" cy="380.47" r="1.0484" display="block"/>
   <circle cx="54.883" cy="380.47" r="1.0484" display="block"/>
   <circle cx="58.36" cy="380.47" r="1.0484" display="block"/>
  </g>
 </g>
</svg>
