<?xml version="1.0" encoding="UTF-8"?>
<!-- Created with Inkscape (http://www.inkscape.org/) -->
<svg width="42.794mm" height="45.245mm" version="1.1" viewBox="0 0 42.794 45.245" xmlns="http://www.w3.org/2000/svg" xmlns:cc="http://creativecommons.org/ns#" xmlns:dc="http://purl.org/dc/elements/1.1/" xmlns:rdf="http://www.w3.org/1999/02/22-rdf-syntax-ns#">
 <metadata>
  <rdf:RDF>
   <cc:Work rdf:about="">
    <dc:format>image/svg+xml</dc:format>
    <dc:type rdf:resource="http://purl.org/dc/dcmitype/StillImage"/>
    <dc:title/>
   </cc:Work>
  </rdf:RDF>
 </metadata>
 <g fill="#fff" stroke-width="0">
  <path d="m16.917 36.339c-0.09709-0.11538-0.20954-0.33621-0.24988-0.49072-0.55039-2.1078-1.3322-4.0281-2.2939-5.6342-0.28344-0.4734-0.96248-1.4997-1.509-2.2806-1.3397-1.9145-1.8811-2.9892-2.2737-4.5133-0.28551-1.1086-0.35777-1.7004-0.35247-2.8867 0.01243-2.7797 0.97814-5.3084 2.8479-7.4573 1.5579-1.7905 3.8305-3.0929 6.3114-3.6172 0.62022-0.13107 0.90648-0.15048 2.1838-0.14812 1.6109 0.00297 2.1456 0.080307 3.4999 0.50617 0.86687 0.27261 2.3794 1.0291 3.1151 1.5581 2.7494 1.9768 4.5395 5.0075 4.9162 8.3229 0.17829 1.5695-0.13087 3.2179-0.91471 4.8768-0.42164 0.89238-0.7634 1.4702-1.9966 3.3754-1.2366 1.9105-1.5752 2.4829-2.0029 3.3858-0.56839 1.1999-1.0164 2.814-1.1374 4.0978-0.06127 0.65003-0.14 0.86687-0.35307 0.97239-0.1457 0.07217-1.1185 0.09528-4.8979 0.11637l-4.7161 0.02633zm-1.8048-12.361c0.17383-0.07892 0.34914-0.23207 0.46355-0.40495 0.27455-0.41488 0.2528-0.90347-0.0788-1.7704-0.24024-0.62807-0.25558-0.71228-0.25559-1.4032-5e-6 -0.65051 0.02426-0.80574 0.21111-1.3505 0.5898-1.7195 1.4986-2.9145 2.9969-3.9409 0.74324-0.50915 0.94595-0.71133 0.99953-0.99692 0.15729-0.83841-0.61823-1.4926-1.5481-1.3058-0.80616 0.1619-1.8922 0.90233-2.6888 1.8331-0.79309 0.9267-1.6205 2.4114-2.0699 3.7141-0.24291 0.70422-0.24507 0.71999-0.24325 1.7796 0.0016 0.90661 0.02965 1.1999 0.18486 1.9297 0.10066 0.47332 0.25952 1.0223 0.353 1.2199 0.33883 0.71622 1.0137 0.99668 1.6755 0.69623z"/>
  <rect x="16.58" y="37.701" width="10.056" height=".90204" ry=".45102"/>
  <rect x="16.58" y="39.739" width="10.056" height=".90204" ry=".45102"/>
  <rect x="16.58" y="41.743" width="10.056" height=".90204" ry=".45102"/>
  <path d="m17.292 42.348 8.2308 0.04725c0.03926 2.26e-4 -0.47247 0.42739-0.47247 0.42739l-0.73401 0.88554c-0.40574 0.42733-1.093 0.20735-1.1322 0.20905h-3.3644c-0.03924-0.0014-0.59484 0.34548-1.142-0.17969l-0.39349-0.74953c-0.11614-0.22123-1.0314-0.64023-0.99219-0.64z"/>
  <path d="m19.713 43.804 3.449-0.23624c0.0392-3e-3 1.0867 0.63849 1.0631 1.252-9e-3 0.23541-0.0316 0.42523-0.0709 0.42523h-5.3625c-0.0393 0-0.10967-0.19286-0.0709-0.42523 0.0945-0.5663 0.96214-1.1963 0.9686-1.1576z"/>
  <rect transform="rotate(28.016)" x="5.8156" y="10.366" width="10.056" height=".90204" ry=".45102"/>
  <rect transform="matrix(-.88282 .46971 .46971 .88282 0 0)" x="-31.841" y="30.698" width="10.056" height=".90204" ry=".45102"/>
  <rect transform="rotate(65.619)" x="4.565" y="-10.425" width="10.056" height=".90204" ry=".45102"/>
  <rect transform="matrix(-.4128 .91082 .91082 .4128 0 0)" x="-13.077" y="29.149" width="10.056" height=".90203" ry=".45102"/>
  <rect transform="matrix(.70235 .71183 -.52787 .84933 0 0)" x="10.408" y=".95507" width="5.8614" height=".61508" ry=".30754"/>
  <rect transform="matrix(-.70235 .71183 .52787 .84933 0 0)" x="-27.442" y="32.677" width="5.8614" height=".61508" ry=".30754"/>
  <rect transform="matrix(.01141 .99993 -.96955 .24491 0 0)" x="7.4843" y="-22.874" width="5.8614" height=".61508" ry=".30754"/>
  <rect transform="matrix(.99989 -.014653 .24806 .96875 0 0)" x="-2.6971" y="21.709" width="5.8614" height=".61508" ry=".30754"/>
  <rect transform="matrix(-.99989 -.014653 -.24806 .96875 0 0)" x="-45.602" y="21.06" width="5.8614" height=".61508" ry=".30754"/>
 </g>
</svg>
